<?xml version="1.0" standalone="no"?>
<!DOCTYPE svg PUBLIC "-//W3C//DTD SVG 20010904//EN"
 "http://www.w3.org/TR/2001/REC-SVG-20010904/DTD/svg10.dtd">
<svg version="1.0" xmlns="http://www.w3.org/2000/svg"
 width="915.000000pt" height="913.000000pt" viewBox="0 0 915.000000 913.000000"
 preserveAspectRatio="xMidYMid meet">
<metadata>
Created by potrace 1.13, written by Peter Selinger 2001-2015
</metadata>
<g transform="translate(0.000000,913.000000) scale(0.100000,-0.100000)"
fill="#FF6A13" stroke="none">
<path d="M4530 8361 c-14 -5 -92 -42 -175 -83 -82 -42 -256 -128 -385 -192
-129 -65 -251 -126 -270 -137 -41 -22 -685 -348 -1171 -591 -217 -108 -352
-182 -380 -207 -40 -35 -44 -43 -44 -85 0 -37 5 -51 30 -75 17 -16 174 -102
350 -191 176 -89 574 -290 885 -447 311 -157 678 -343 817 -414 138 -71 287
-140 330 -155 135 -45 315 -33 443 30 25 12 259 131 520 263 967 490 1089 551
1094 545 4 -3 6 -146 6 -319 l0 -313 65 0 65 0 2 356 3 356 255 129 c287 144
320 169 320 235 0 70 -36 95 -380 269 -248 124 -630 318 -1211 612 -31 15 -67
33 -80 39 -13 6 -188 94 -389 195 l-365 183 -155 2 c-85 1 -166 -1 -180 -5z"/>
<path d="M3207 5633 c-2 -296 -7 -568 -10 -605 -3 -36 -9 -286 -13 -555 -4
-268 -8 -506 -9 -528 -2 -22 -3 -48 -4 -57 -1 -15 -14 -11 -83 24 -182 89
-343 197 -473 316 -78 71 -151 113 -242 136 -298 78 -547 -143 -504 -446 6
-45 9 -83 8 -85 -2 -2 -28 1 -57 7 -113 21 -235 4 -316 -46 -52 -32 -134 -106
-134 -120 0 -8 -4 -14 -8 -14 -12 0 -50 -124 -58 -185 -8 -68 19 -221 56 -309
56 -135 117 -225 224 -332 128 -128 250 -211 488 -334 l77 -40 -14 -48 c-17
-55 -21 -147 -10 -207 11 -62 65 -155 120 -210 66 -65 152 -110 273 -142 93
-25 110 -26 392 -28 245 -2 294 -5 291 -16 -15 -59 -12 -129 9 -188 75 -222
312 -366 570 -347 238 17 567 159 800 344 25 20 78 68 118 107 40 38 78 71 85
72 7 1 39 -28 72 -65 116 -131 257 -234 436 -320 280 -135 517 -159 704 -71
64 30 183 148 221 219 27 51 29 63 29 161 l0 107 200 -5 c335 -9 511 21 651
112 85 55 138 115 175 201 29 65 36 200 15 269 -8 27 -12 53 -8 56 4 4 45 27
92 52 247 129 429 262 525 381 107 134 178 280 209 429 19 90 20 128 5 199
-25 117 -91 210 -187 267 -99 59 -222 74 -360 47 -23 -5 -24 -4 -16 47 13 88
6 190 -17 251 -77 207 -318 301 -539 212 -76 -31 -129 -66 -225 -152 -77 -67
-221 -168 -331 -229 -100 -57 -183 -95 -188 -87 -2 4 -7 246 -11 537 -4 292
-9 555 -11 585 -2 30 -3 303 -3 607 0 318 -4 554 -9 557 -12 7 -786 -334 -832
-367 -13 -9 -32 -17 -40 -17 -9 0 -20 -4 -26 -9 -18 -18 -289 -132 -364 -153
-93 -26 -303 -36 -393 -19 -116 22 -236 68 -462 175 -181 87 -261 123 -295
136 -19 7 -39 17 -45 21 -5 4 -116 53 -245 109 -129 57 -244 109 -255 116 -11
8 -25 14 -31 14 -9 0 -13 -130 -17 -537z m2724 -915 c0 -112 2 -232 4 -268 2
-36 6 -238 9 -451 6 -353 14 -503 32 -569 12 -41 68 -122 116 -167 56 -50 198
-121 265 -131 26 -4 113 -7 193 -6 116 1 161 6 225 23 162 44 227 74 365 165
210 138 308 191 420 229 113 37 152 42 196 21 99 -47 99 -177 1 -369 -78 -154
-247 -294 -540 -449 l-129 -67 -46 22 c-83 39 -115 46 -207 48 -180 4 -445 42
-565 82 -142 47 -232 10 -247 -100 -7 -53 27 -114 76 -135 45 -19 234 -69 321
-85 95 -17 243 -31 335 -31 108 0 152 -14 201 -64 66 -66 76 -140 29 -213 -20
-31 -122 -79 -194 -93 -68 -13 -511 -13 -699 0 l-143 10 -47 42 c-100 90 -250
242 -297 300 -27 34 -63 69 -80 79 -89 55 -215 -14 -215 -118 0 -52 29 -93
185 -263 71 -78 271 -257 374 -336 35 -27 73 -61 84 -76 18 -23 18 -30 7 -57
-17 -43 -91 -108 -136 -120 -83 -23 -182 -6 -331 55 -157 65 -278 147 -410
280 -123 123 -213 276 -213 362 0 14 -9 45 -20 68 -44 89 -158 103 -231 28
-32 -33 -34 -40 -34 -102 0 -37 3 -74 6 -82 4 -8 15 -37 24 -63 20 -56 27 -43
-90 -166 -151 -159 -364 -290 -605 -373 -52 -19 -87 -23 -175 -23 -103 0 -113
2 -158 28 -53 32 -107 98 -107 133 0 24 72 91 249 232 61 49 295 286 343 348
57 73 71 107 62 148 -15 68 -72 116 -139 116 -53 0 -87 -22 -152 -98 -82 -95
-272 -282 -321 -315 -39 -27 -49 -29 -199 -39 -87 -5 -282 -8 -433 -6 -256 4
-279 6 -338 27 -106 39 -165 121 -143 197 15 52 58 110 93 127 44 21 78 25
245 32 206 8 523 75 598 126 39 27 60 82 51 132 -8 42 -56 94 -93 103 -16 3
-34 7 -40 10 -7 2 -41 -5 -75 -16 -153 -47 -356 -79 -533 -86 -154 -6 -203
-15 -270 -50 l-50 -26 -130 67 c-71 37 -156 85 -189 106 -32 22 -61 39 -63 39
-13 0 -137 106 -189 163 -135 143 -211 371 -155 463 27 44 80 67 139 58 52 -7
208 -64 256 -93 17 -10 58 -33 90 -50 33 -17 78 -45 100 -62 225 -167 446
-246 691 -247 143 -1 215 13 315 60 124 58 212 152 245 262 22 72 30 286 41
1056 3 223 7 406 9 408 2 3 21 -10 42 -27 21 -17 41 -31 46 -31 5 0 28 -13 51
-29 62 -43 209 -106 346 -149 65 -21 253 -59 405 -84 108 -17 494 -17 610 1
390 58 656 147 855 285 36 25 68 45 73 45 4 1 7 -90 8 -201z m-3590 -634 c25
-12 39 -24 138 -109 159 -137 424 -297 621 -376 58 -23 65 -29 68 -56 4 -39
-38 -90 -95 -115 -99 -44 -272 -39 -433 11 -189 60 -395 248 -462 424 -25 66
-33 155 -16 187 28 52 111 68 179 34z m4886 0 c30 -18 47 -81 39 -137 -14 -92
-93 -226 -196 -332 -160 -166 -481 -260 -685 -200 -78 22 -138 79 -133 126 3
30 9 34 118 83 96 42 240 115 286 144 117 73 213 145 329 245 106 91 176 112
242 71z"/>
<path d="M4065 4331 c-83 -22 -153 -84 -200 -177 l-30 -59 0 -265 c0 -192 4
-278 13 -311 20 -69 88 -149 158 -186 55 -29 66 -31 159 -31 80 0 107 4 140
20 76 39 126 88 156 155 l29 63 0 274 c0 250 -2 280 -20 328 -23 61 -94 139
-155 171 -44 22 -194 33 -250 18z m189 -162 c20 -11 46 -37 58 -57 22 -36 23
-44 23 -292 0 -248 -1 -256 -23 -295 -32 -56 -83 -87 -143 -88 -40 0 -58 6
-99 34 -77 52 -80 67 -80 352 0 210 2 247 18 277 17 35 80 85 117 94 35 8 93
-3 129 -25z"/>
<path d="M4123 4000 c-63 -38 -66 -132 -6 -180 83 -65 193 -11 193 96 0 86
-107 133 -187 84z"/>
<path d="M5162 4325 c-59 -25 -137 -101 -168 -162 l-29 -58 -3 -268 c-4 -324
0 -343 82 -434 76 -83 128 -105 249 -102 82 1 99 5 152 33 103 54 147 114 165
224 13 77 12 451 0 530 -16 98 -73 172 -173 224 -34 18 -61 23 -142 25 -69 1
-110 -3 -133 -12z m225 -156 c71 -44 73 -53 73 -349 0 -300 -1 -304 -80 -356
-79 -53 -180 -26 -240 63 -25 36 -25 37 -25 277 0 133 3 253 7 268 12 40 57
88 103 110 49 23 112 18 162 -13z"/>
<path d="M5182 3990 c-92 -92 9 -237 130 -186 47 20 68 51 68 99 0 77 -39 116
-117 117 -44 0 -56 -4 -81 -30z"/>
<path d="M6540 5871 c-5 -11 -10 -60 -10 -109 0 -85 1 -89 25 -100 39 -18 156
-15 183 4 20 14 22 24 22 97 0 119 -7 127 -120 127 -78 0 -91 -2 -100 -19z"/>
<path d="M6451 5433 c-60 -162 -66 -188 -52 -226 18 -46 125 -90 221 -90 142
0 170 31 150 160 -10 59 -8 84 5 72 2 -3 15 -42 27 -87 13 -45 26 -82 30 -82
16 0 38 34 38 58 0 15 -24 96 -52 180 -48 139 -55 152 -73 145 -27 -9 -195
-10 -221 0 -20 7 -25 -3 -73 -130z"/>
</g>
</svg>
